<svg width="56" height="56" viewBox="0 0 56 56" fill="none" xmlns="http://www.w3.org/2000/svg">
    <rect width="56" height="56" rx="28" fill="#FCEEED" />
    <path d="M28 13.4165C25.1157 13.4165 22.2962 14.2718 19.898 15.8742C17.4997 17.4767 15.6306 19.7543 14.5268 22.419C13.423 25.0838 13.1342 28.016 13.6969 30.8449C14.2596 33.6738 15.6485 36.2723 17.6881 38.3118C19.7276 40.3513 22.3261 41.7402 25.155 42.3029C27.9838 42.8657 30.9161 42.5769 33.5808 41.4731C36.2456 40.3693 38.5232 38.5001 40.1256 36.1019C41.7281 33.7037 42.5834 30.8841 42.5834 27.9998C42.5721 24.1355 41.0321 20.4327 38.2996 17.7003C35.5671 14.9678 31.8643 13.4277 28 13.4165V13.4165ZM34.0156 32.2971L32.2972 34.0155L28 29.7182L23.7028 34.0155L21.9844 32.2971L26.2816 27.9998L21.9844 23.7026L23.7028 21.9842L28 26.2814L32.2972 21.9842L34.0156 23.7026L29.7184 27.9998L34.0156 32.2971Z" fill="#E14337" />
</svg>
    