<svg width="56" height="56" viewBox="0 0 56 56" fill="none" xmlns="http://www.w3.org/2000/svg">
    <rect width="56" height="56" rx="28" fill="#EEF2FD" />
    <path d="M28 13.4165C25.1157 13.4165 22.2961 14.2718 19.8979 15.8742C17.4997 17.4767 15.6305 19.7543 14.5268 22.419C13.423 25.0838 13.1342 28.016 13.6969 30.8449C14.2596 33.6738 15.6485 36.2723 17.688 38.3118C19.7275 40.3513 22.326 41.7402 25.1549 42.3029C27.9838 42.8657 30.916 42.5769 33.5808 41.4731C36.2455 40.3693 38.5231 38.5001 40.1256 36.1019C41.728 33.7037 42.5833 30.8841 42.5833 27.9998C42.5791 24.1334 41.0413 20.4265 38.3073 17.6925C35.5733 14.9585 31.8664 13.4207 28 13.4165V13.4165ZM29.2493 36.1714H26.7397V25.5693H29.2493V36.1714ZM29.0415 22.2382C28.903 22.3651 28.7404 22.4628 28.5633 22.5254C28.3863 22.5881 28.1984 22.6144 28.0109 22.6028C27.82 22.6155 27.6285 22.5898 27.4478 22.5271C27.267 22.4645 27.1006 22.3663 26.9585 22.2382C26.833 22.103 26.736 21.9439 26.6733 21.7704C26.6107 21.5969 26.5837 21.4125 26.5939 21.2283C26.5812 21.0398 26.607 20.8507 26.6696 20.6725C26.7323 20.4943 26.8306 20.3307 26.9585 20.1917C27.101 20.0642 27.2674 19.9663 27.4481 19.9037C27.6288 19.8411 27.8201 19.8151 28.0109 19.8271C28.1983 19.8162 28.386 19.8428 28.563 19.9054C28.74 19.968 28.9026 20.0654 29.0415 20.1917C29.1694 20.3307 29.2677 20.4943 29.3303 20.6725C29.393 20.8507 29.4188 21.0398 29.4061 21.2283C29.4163 21.4125 29.3893 21.5969 29.3267 21.7704C29.264 21.9439 29.167 22.103 29.0415 22.2382Z" fill="#366AE2" />
</svg>
    