<svg width="56" height="56" viewBox="0 0 56 56" fill="none" xmlns="http://www.w3.org/2000/svg">
    <rect width="56" height="56" rx="28" fill="#E8F7EF" />
    <path d="M28 13.4165C25.1157 13.4165 22.2961 14.2718 19.8979 15.8742C17.4997 17.4767 15.6305 19.7543 14.5267 22.419C13.4229 25.0838 13.1341 28.016 13.6968 30.8449C14.2595 33.6738 15.6485 36.2723 17.688 38.3118C19.7275 40.3513 22.326 41.7402 25.1549 42.3029C27.9838 42.8657 30.916 42.5769 33.5808 41.4731C36.2455 40.3693 38.5231 38.5001 40.1256 36.1019C41.728 33.7037 42.5833 30.8841 42.5833 27.9998C42.5721 24.1355 41.032 20.4327 38.2995 17.7003C35.5671 14.9678 31.8643 13.4277 28 13.4165V13.4165ZM25.5694 34.5793L18.9899 27.9998L20.7083 26.2814L25.5694 31.1425L35.2916 21.4203L37.01 23.1387L25.5694 34.5793Z" fill="#39AC6D" />
</svg>