<svg width="56" height="56" viewBox="0 0 56 56" fill="none" xmlns="http://www.w3.org/2000/svg">
    <rect width="56" height="56" rx="28" fill="#FFF3EB" />
    <path d="M42.1513 35.8876L31.3211 15.4137C31.001 14.8106 30.5228 14.3061 29.9377 13.9542C29.3526 13.6024 28.6827 13.4165 28 13.4165C27.3172 13.4165 26.6474 13.6024 26.0623 13.9542C25.4772 14.3061 24.9989 14.8106 24.6788 15.4137L13.8486 35.8876C13.5474 36.4588 13.3992 37.0983 13.4183 37.7439C13.4373 38.3894 13.6231 39.019 13.9576 39.5715C14.292 40.124 14.7637 40.5805 15.3268 40.8968C15.8899 41.213 16.5252 41.3782 17.171 41.3762H38.8289C39.4747 41.3782 40.1101 41.213 40.6732 40.8968C41.2362 40.5805 41.7079 40.124 42.0424 39.5715C42.3768 39.019 42.5626 38.3894 42.5817 37.7439C42.6007 37.0983 42.4525 36.4588 42.1513 35.8876ZM28 37.7293C27.6393 37.7293 27.2868 37.6223 26.9869 37.4219C26.687 37.2216 26.4533 36.9368 26.3153 36.6036C26.1773 36.2704 26.1412 35.9038 26.2115 35.55C26.2819 35.1963 26.4556 34.8714 26.7106 34.6164C26.9656 34.3614 27.2905 34.1877 27.6442 34.1174C27.9979 34.047 28.3646 34.0831 28.6978 34.2211C29.031 34.3591 29.3158 34.5929 29.5161 34.8927C29.7165 35.1926 29.8234 35.5451 29.8234 35.9058C29.8234 36.3894 29.6313 36.8532 29.2893 37.1952C28.9474 37.5371 28.4836 37.7293 28 37.7293ZM29.2156 31.651H26.7843L26.1765 21.9259H29.8234L29.2156 31.651Z" fill="#FC6B03" />
</svg>