<svg width="49" height="49" viewBox="0 0 49 49" fill="none" xmlns="http://www.w3.org/2000/svg">
    <rect x="0.332031" y="0.279297" width="48" height="48" rx="24" fill="#366AE2" />
    <path d="M24.332 11.7793C19.4431 11.7793 14.332 15.4749 14.332 21.5619C14.332 27.3228 23.2209 36.1271 23.5543 36.4532C23.7765 36.6706 23.9987 36.7793 24.332 36.7793C24.6654 36.7793 24.8876 36.6706 25.1098 36.4532C25.4431 36.1271 34.332 27.3228 34.332 21.5619C34.332 15.4749 29.2209 11.7793 24.332 11.7793ZM24.332 24.8228C22.4431 24.8228 20.9987 23.4097 20.9987 21.5619C20.9987 19.7141 22.4431 18.301 24.332 18.301C26.2209 18.301 27.6654 19.7141 27.6654 21.5619C27.6654 23.4097 26.2209 24.8228 24.332 24.8228Z" fill="white" />
</svg>
    