<svg width="20" height="20" viewBox="0 0 20 20" fill="none" xmlns="http://www.w3.org/2000/svg">
<path fill-rule="evenodd" clip-rule="evenodd" d="M6.14305 3.2934C7.16598 2.2514 8.55336 1.66602 10 1.66602C11.4466 1.66602 12.834 2.2514 13.8569 3.2934C14.8799 4.3354 15.4545 5.74866 15.4545 7.22227V9.30586C15.4545 10.1985 15.8344 10.7493 16.3067 11.2946C16.3613 11.3576 16.4214 11.4249 16.4841 11.4953C16.6741 11.7083 16.8889 11.9492 17.0534 12.1838C17.29 12.5213 17.5 12.944 17.5 13.4731C17.5 14.0622 17.1632 14.5204 16.7581 14.8436C16.3528 15.1668 15.8033 15.4216 15.1703 15.6211C13.8971 16.0223 12.1183 16.2512 10 16.2512C7.88165 16.2512 6.10289 16.0223 4.82975 15.6211C4.19665 15.4216 3.6472 15.1668 3.24193 14.8436C2.83679 14.5204 2.5 14.0622 2.5 13.4731C2.5 12.944 2.70996 12.5213 2.9466 12.1838C3.11111 11.9492 3.32593 11.7083 3.51589 11.4953C3.57864 11.4249 3.63868 11.3576 3.69329 11.2946C4.16562 10.7493 4.54545 10.1985 4.54545 9.30586V7.22227C4.54545 5.74866 5.12013 4.3354 6.14305 3.2934ZM10 3.05508C8.91502 3.05508 7.87448 3.49412 7.10729 4.27562C6.3401 5.05712 5.90909 6.11706 5.90909 7.22227V9.30586C5.90909 10.7052 5.2662 11.5782 4.7158 12.2136C4.62724 12.3158 4.5468 12.4061 4.4731 12.4887C4.3043 12.6781 4.17087 12.8277 4.05624 12.9912C3.90935 13.2007 3.86364 13.3423 3.86364 13.4731C3.86357 13.4762 3.86156 13.5735 4.08264 13.7499C4.30592 13.928 4.68119 14.1203 5.23275 14.2941C6.32893 14.6395 7.95926 14.8621 10 14.8621C12.0407 14.8621 13.6711 14.6395 14.7672 14.2941C15.3188 14.1203 15.6941 13.928 15.9174 13.7499C16.1384 13.5735 16.1364 13.4763 16.1364 13.4731C16.1364 13.3424 16.0906 13.2007 15.9438 12.9912C15.8291 12.8277 15.6957 12.6781 15.5269 12.4887C15.4532 12.4061 15.3728 12.3158 15.2842 12.2136C14.7338 11.5782 14.0909 10.7052 14.0909 9.30586V7.22227C14.0909 6.11706 13.6599 5.05712 12.8927 4.27562C12.1255 3.49412 11.085 3.05508 10 3.05508Z" fill="white"/>
<path d="M10 16.9457C9.31068 16.9457 8.66295 16.9221 8.05341 16.8763C8.18336 17.2985 8.44225 17.6675 8.79237 17.9295C9.1425 18.1914 9.56558 18.3327 10 18.3327C10.4344 18.3327 10.8575 18.1914 11.2076 17.9295C11.5578 17.6675 11.8166 17.2985 11.9466 16.8763C11.337 16.9221 10.6893 16.9457 10 16.9457Z" fill="white"/>
</svg>
