<svg class="svg" width="24" height="24" viewBox="0 0 24 24" xmlns="http://www.w3.org/2000/svg">
    <path d="M16.5 18H10v-1h6.5c.276 0 .5-.224.5-.5v-9c0-.276-.224-.5-.5-.5H10V6h6.5c.828 0 1.5.672 1.5 1.5v9c0 .828-.672 1.5-1.5 1.5z" fill-rule="evenodd" fill-opacity=".3" fill="#FFFFFF" stroke="none"></path>
    <path d="M7.5 6H14v1H7.5c-.276 0-.5.224-.5.5v9c0 .276.224.5.5.5H14v1H7.5c-.828 0-1.5-.672-1.5-1.5v-9C6 6.672 6.672 6 7.5 6z" fill-rule="evenodd" fill-opacity=".3" fill="#FFFFFF" stroke="none"></path>
    <path d="M6 18V6h1v12H6z" fill-rule="evenodd" fill-opacity="1" fill="#FFFFFF" stroke="none"></path>
</svg>