<svg width="24" height="24" viewBox="0 0 24 24" fill="none" xmlns="http://www.w3.org/2000/svg">
<path fill-rule="evenodd" clip-rule="evenodd" d="M19.1003 3.04167H11.5013C10.9767 3.04167 10.5515 3.50804 10.5515 4.08333V19.9167C10.5515 20.492 10.9767 20.9583 11.5013 20.9583H19.1003C19.6249 20.9583 20.0501 20.492 20.0501 19.9167V4.08333C20.0501 3.50804 19.6249 3.04167 19.1003 3.04167ZM11.5013 2C10.4521 2 9.60158 2.93274 9.60158 4.08333V19.9167C9.60158 21.0673 10.4521 22 11.5013 22H19.1003C20.1495 22 21 21.0673 21 19.9167V4.08333C21 2.93274 20.1495 2 19.1003 2H11.5013Z" fill="#4B6281"/>
<path d="M8.84169 2H4.56824C3.70212 2 3 2.93274 3 4.08333V19.9167C3 21.0673 3.70212 22 4.56824 22H8.84169V20.9583H4.56824C4.13518 20.9583 3.78412 20.492 3.78412 19.9167V4.08333C3.78412 3.50804 4.13518 3.04167 4.56824 3.04167H8.84169V2Z" fill="#4B6281"/>
</svg>
