<svg width="32" height="32" viewBox="0 0 32 32" fill="none" xmlns="http://www.w3.org/2000/svg">
    <rect width="32" height="32" rx="16" fill="#EEF2FD" />
    <path d="M16.0013 7.66699C14.3531 7.66699 12.742 8.15573 11.3716 9.07141C10.0011 9.98709 8.93304 11.2886 8.30231 12.8113C7.67158 14.334 7.50655 16.0096 7.8281 17.6261C8.14964 19.2426 8.94331 20.7274 10.1087 21.8929C11.2742 23.0583 12.759 23.852 14.3756 24.1735C15.9921 24.4951 17.6676 24.33 19.1903 23.6993C20.713 23.0686 22.0145 22.0005 22.9302 20.6301C23.8459 19.2597 24.3346 17.6485 24.3346 16.0003C24.3282 13.7922 23.4482 11.6763 21.8868 10.1149C20.3254 8.55344 18.2095 7.6734 16.0013 7.66699V7.66699ZM14.6124 19.76L10.8527 16.0003L11.8346 15.0184L14.6124 17.7962L20.168 12.2406L21.1499 13.2225L14.6124 19.76Z" fill="#366AE2" />
</svg>
    