<svg width="10" height="12" viewBox="0 0 10 12" fill="none" xmlns="http://www.w3.org/2000/svg">
    <path fill-rule="evenodd" clip-rule="evenodd"
        d="M5.5 0.5C5.5 0.224 5.276 0 5 0C4.724 0 4.5 0.224 4.5 0.5V2.025C1.974 2.275 0 4.407 0 7C0 9.761 2.239 12 5 12C7.761 12 10 9.761 10 7C10 5.8 9.577 4.698 8.872 3.836L9.354 3.354C9.549 3.158 9.549 2.842 9.354 2.646C9.158 2.451 8.842 2.451 8.646 2.646L8.164 3.128C7.424 2.522 6.505 2.124 5.499 2.025L5.5 2V0.5ZM9 7C9 9.21 7.21 11 5 11C2.79 11 1 9.21 1 7C1 4.79 2.79 3 5 3C7.21 3 9 4.79 9 7ZM5 4C5.276 4 5.5 4.224 5.5 4.5V6.134C5.799 6.307 6 6.63 6 7C6 7.552 5.552 8 5 8C4.448 8 4 7.552 4 7C4 6.63 4.201 6.307 4.5 6.134V4.5C4.5 4.224 4.724 4 5 4Z"
        fill="black" />
</svg>
    