<svg width="48" height="48" viewBox="0 0 48 48" fill="none" xmlns="http://www.w3.org/2000/svg">
    <rect width="48" height="48" rx="24" fill="#366AE2" />
    <path d="M18.3244 20.9759L14.6045 24.0809L18.3244 27.1859C18.4502 27.2865 18.5546 27.4113 18.6315 27.5528C18.7085 27.6944 18.7563 27.8499 18.7723 28.0102C18.7883 28.1705 18.7722 28.3324 18.7248 28.4864C18.6774 28.6404 18.5997 28.7833 18.4963 28.9069C18.3929 29.0304 18.2658 29.132 18.1226 29.2058C17.9794 29.2796 17.8229 29.324 17.6623 29.3365C17.5016 29.349 17.3401 29.3293 17.1872 29.2785C17.0344 29.2277 16.8931 29.1469 16.7719 29.0408L11.933 25.0084C11.7974 24.8948 11.6884 24.7529 11.6136 24.5927C11.5388 24.4324 11.5 24.2577 11.5 24.0809C11.5 23.9041 11.5388 23.7294 11.6136 23.5691C11.6884 23.4089 11.7974 23.267 11.933 23.1534L16.7719 19.121C17.0188 18.9235 17.3333 18.8305 17.6479 18.8619C17.9626 18.8933 18.2524 19.0467 18.4554 19.2892C18.6583 19.5317 18.7583 19.844 18.7338 20.1593C18.7093 20.4745 18.5623 20.7677 18.3244 20.9759V20.9759ZM36.067 23.1534L31.2281 19.121C30.9812 18.9235 30.6667 18.8305 30.3521 18.8619C30.0374 18.8933 29.7476 19.0467 29.5446 19.2892C29.3417 19.5317 29.2417 19.844 29.2662 20.1593C29.2907 20.4745 29.4377 20.7677 29.6756 20.9759L33.4056 24.0809L29.6756 27.1859C29.5527 27.287 29.4512 27.4116 29.3769 27.5525C29.3026 27.6933 29.2571 27.8474 29.2431 28.006C29.229 28.1646 29.2466 28.3244 29.2949 28.4761C29.3432 28.6278 29.4212 28.7683 29.5244 28.8895C29.6388 29.0242 29.7808 29.1326 29.9409 29.2074C30.1009 29.2822 30.2752 29.3216 30.4518 29.323C30.7357 29.3229 31.0105 29.223 31.2281 29.0408L36.067 25.0084C36.2026 24.8948 36.3116 24.7529 36.3864 24.5927C36.4612 24.4324 36.5 24.2577 36.5 24.0809C36.5 23.9041 36.4612 23.7294 36.3864 23.5691C36.3116 23.4089 36.2026 23.267 36.067 23.1534V23.1534ZM27.6392 14.0705C27.337 13.963 27.0046 13.979 26.7141 14.1148C26.4235 14.2507 26.1981 14.4955 26.0868 14.7963L19.6349 32.5389C19.5275 32.8411 19.5434 33.1735 19.6793 33.4641C19.8151 33.7546 20.06 33.98 20.3608 34.0913C20.4933 34.1392 20.6332 34.1631 20.7741 34.1619C21.0228 34.1624 21.2656 34.0862 21.4694 33.9437C21.6733 33.8011 21.8283 33.5993 21.9132 33.3655L28.3651 15.6229C28.4725 15.3207 28.4566 14.9883 28.3207 14.6978C28.1849 14.4072 27.94 14.1818 27.6392 14.0705V14.0705Z" fill="white" />
</svg>
    