<svg width="48" height="48" viewBox="0 0 48 48" fill="none" xmlns="http://www.w3.org/2000/svg">
    <rect width="48" height="48" rx="24" fill="#366AE2" />
    <path d="M35.7676 11.5H32.7891C32.3842 11.5 32.0566 11.8276 32.0566 12.2324V12.9648H26.0624C25.759 12.1142 24.9536 11.5 24 11.5C23.0464 11.5 22.241 12.1142 21.9376 12.9648H15.9434V12.2324C15.9434 11.8276 15.6158 11.5 15.2109 11.5H12.2324C11.8276 11.5 11.5 11.8276 11.5 12.2324V15.1621C11.5 15.5669 11.8276 15.8945 12.2324 15.8945H15.2109C15.6158 15.8945 15.9434 15.5669 15.9434 15.1621V14.4199H18.9514C16.4095 16.0079 14.7335 18.7969 14.5332 21.9207C13.6543 22.2083 13.0137 23.0264 13.0137 24C13.0137 25.2116 13.9993 26.1973 15.2109 26.1973C16.4226 26.1973 17.4082 25.2116 17.4082 24C17.4082 23.0654 16.8193 22.2708 15.9951 21.9538C16.245 18.4711 18.6751 15.5357 22.0553 14.6982C22.4209 15.4051 23.1507 15.8945 24 15.8945C24.8493 15.8945 25.5791 15.4051 25.9447 14.6982C29.3249 15.5357 31.755 18.471 32.0049 21.9537C31.1807 22.2708 30.5918 23.0654 30.5918 24C30.5918 25.2116 31.5774 26.1973 32.7891 26.1973C34.0007 26.1973 34.9863 25.2116 34.9863 24C34.9863 23.0264 34.3457 22.2083 33.4668 21.9207C33.2665 18.7969 31.5905 16.0176 29.0486 14.4297H32.0566V15.1621C32.0566 15.5669 32.3842 15.8945 32.7891 15.8945H35.7676C36.1724 15.8945 36.5 15.5669 36.5 15.1621V12.2324C36.5 11.8276 36.1724 11.5 35.7676 11.5Z" fill="white" />
    <path d="M28.9829 35.5916C28.5998 34.4192 27.4961 33.5215 26.1973 33.5215H21.8027C20.5039 33.5215 19.4002 34.4192 19.0171 35.5916C18.8694 36.0436 19.2539 36.5 19.7295 36.5H28.2705C28.746 36.5 29.1306 36.0436 28.9829 35.5916Z" fill="white" />
    <path d="M30.4688 26.5234L24.7324 17.9189V24.8673C25.5831 25.1707 26.1973 25.9761 26.1973 26.9297C26.1973 28.1413 25.2116 29.127 24 29.127C22.7884 29.127 21.8027 28.1413 21.8027 26.9297C21.8027 25.9761 22.4169 25.1707 23.2676 24.8673V17.9189L17.5312 26.5234C17.3374 26.8138 17.376 27.2008 17.6228 27.4476C18.9674 28.7921 19.8269 30.5243 20.1585 32.3824C20.6673 32.176 21.2207 32.0566 21.8027 32.0566H26.1973C26.7793 32.0566 27.3327 32.1759 27.8415 32.3823C28.1731 30.5241 29.0326 28.7921 30.3772 27.4476C30.624 27.2008 30.6626 26.8138 30.4688 26.5234Z" fill="white" />
    <path d="M24 26.1973C23.5959 26.1973 23.2676 26.5256 23.2676 26.9297C23.2676 27.3338 23.5959 27.6621 24 27.6621C24.4041 27.6621 24.7324 27.3338 24.7324 26.9297C24.7324 26.5256 24.4041 26.1973 24 26.1973Z" fill="white" />
</svg>
    