<svg class="svg" width="16" height="16" viewBox="0 0 16 16" xmlns="http://www.w3.org/2000/svg">
    <path d="M8 .5V0H7v3h1V.5zM2.904 2.197l-.354-.354-.707.707.354.354L3.61 4.318l.354.354.707-.708-.354-.353-1.414-1.414zm9.9.707l.353-.354-.707-.707-.354.354-1.414 1.414-.354.353.708.708.353-.354 1.414-1.414zM.5 7H0v1h3V7H.5zm12 0H12v1h3V7h-2.5zm-8.182 4.39l.354-.354-.707-.708-.354.354-1.414 1.414-.354.354.707.707.354-.354 1.414-1.414zm7.071-.708l-.354-.354-.707.708.354.353 1.414 1.414.354.354.707-.707-.354-.354-1.414-1.414zM8 12.5V12H7v3h1v-2.5zm.998-5.002c0 .828-.672 1.5-1.5 1.5-.829 0-1.5-.672-1.5-1.5 0-.829.671-1.5 1.5-1.5.828 0 1.5.671 1.5 1.5zm1 0c0 1.38-1.12 2.5-2.5 2.5-1.38 0-2.5-1.12-2.5-2.5 0-1.38 1.12-2.5 2.5-2.5 1.38 0 2.5 1.12 2.5 2.5z" fill-rule="evenodd" fill-opacity="1" fill="#000" stroke="none"></path>
</svg>