<svg width="16" height="16" viewBox="0 0 16 16" fill="none" xmlns="http://www.w3.org/2000/svg">
<path d="M7.9371 9.74939C8.40123 9.74939 8.84635 9.56502 9.17454 9.23683C9.50273 8.90864 9.6871 8.46352 9.6871 7.9994C9.6871 7.94815 9.68476 7.89736 9.68038 7.84721L7.78491 9.74268C7.83507 9.74705 7.8857 9.74939 7.9371 9.74939ZM13.7296 2.58627L13.0621 1.9194C13.0387 1.89597 13.0069 1.88281 12.9737 1.88281C12.9406 1.88281 12.9088 1.89597 12.8854 1.9194L11.1773 3.62799C10.235 3.14643 9.17575 2.90565 7.9996 2.90565C4.99648 2.90565 2.75585 4.46971 1.27773 7.59783C1.21831 7.72364 1.1875 7.86104 1.1875 8.00018C1.1875 8.13931 1.21831 8.27671 1.27773 8.40252C1.86835 9.64658 2.57955 10.6437 3.41132 11.3939L1.75835 13.0463C1.73493 13.0697 1.72177 13.1015 1.72177 13.1346C1.72177 13.1678 1.73493 13.1995 1.75835 13.223L2.42538 13.89C2.44882 13.9134 2.4806 13.9266 2.51374 13.9266C2.54688 13.9266 2.57866 13.9134 2.6021 13.89L13.7296 2.76315C13.7412 2.75154 13.7504 2.73775 13.7567 2.72258C13.763 2.7074 13.7663 2.69113 13.7663 2.67471C13.7663 2.65828 13.763 2.64201 13.7567 2.62684C13.7504 2.61167 13.7412 2.59788 13.7296 2.58627ZM5.1871 7.9994C5.18706 7.5244 5.31005 7.0575 5.54408 6.64417C5.77812 6.23084 6.11523 5.88517 6.52256 5.64085C6.92989 5.39652 7.39357 5.26187 7.86841 5.25C8.34325 5.23814 8.81307 5.34947 9.2321 5.57314L8.47241 6.33283C8.16604 6.23473 7.83856 6.22292 7.52591 6.29868C7.21327 6.37445 6.92753 6.53487 6.70006 6.76235C6.47258 6.98982 6.31216 7.27556 6.23639 7.58821C6.16062 7.90086 6.17244 8.22833 6.27054 8.53471L5.51085 9.2944C5.29766 8.89608 5.18644 8.45117 5.1871 7.9994V7.9994Z" fill="#BFBFBF"/>
<path d="M14.722 7.59531C14.172 6.43698 13.5174 5.49245 12.7581 4.76172L10.5059 7.01406C10.6958 7.51033 10.7379 8.05096 10.6271 8.57064C10.5163 9.09031 10.2574 9.56679 9.88172 9.9425C9.506 10.3182 9.02953 10.5771 8.50986 10.6879C7.99018 10.7986 7.44955 10.7566 6.95328 10.5667L5.04297 12.477C5.92922 12.8871 6.91495 13.0922 8.00016 13.0922C11.0033 13.0922 13.2439 11.5281 14.722 8.4C14.7815 8.2742 14.8123 8.13679 14.8123 7.99766C14.8123 7.85852 14.7815 7.72112 14.722 7.59531V7.59531Z" fill="#BFBFBF"/>
</svg>
