<svg width="12" height="12" viewBox="0 0 12 12" fill="none" xmlns="http://www.w3.org/2000/svg">
<path d="M11.0414 5.69766C9.93041 3.35742 8.25112 2.17969 5.99995 2.17969C3.7476 2.17969 2.06948 3.35742 0.958539 5.69883C0.913979 5.79318 0.890869 5.89624 0.890869 6.00059C0.890869 6.10493 0.913979 6.20799 0.958539 6.30234C2.06948 8.64258 3.74877 9.82031 5.99995 9.82031C8.25229 9.82031 9.93041 8.64258 11.0414 6.30117C11.1316 6.11133 11.1316 5.89102 11.0414 5.69766V5.69766ZM5.99995 8.97656C4.10971 8.97656 2.72573 8.01797 1.74956 6C2.72573 3.98203 4.10971 3.02344 5.99995 3.02344C7.89018 3.02344 9.27416 3.98203 10.2503 6C9.27534 8.01797 7.89135 8.97656 5.99995 8.97656ZM5.95307 3.9375C4.81401 3.9375 3.89057 4.86094 3.89057 6C3.89057 7.13906 4.81401 8.0625 5.95307 8.0625C7.09213 8.0625 8.01557 7.13906 8.01557 6C8.01557 4.86094 7.09213 3.9375 5.95307 3.9375ZM5.95307 7.3125C5.22768 7.3125 4.64057 6.72539 4.64057 6C4.64057 5.27461 5.22768 4.6875 5.95307 4.6875C6.67846 4.6875 7.26557 5.27461 7.26557 6C7.26557 6.72539 6.67846 7.3125 5.95307 7.3125Z" fill="#262626"/>
</svg>
