<svg width="16" height="16" viewBox="0 0 16 16" fill="none" xmlns="http://www.w3.org/2000/svg">
<path fill-rule="evenodd" clip-rule="evenodd" d="M8.55621 3.0026H14.6673V4.11372H8.55621V3.0026Z" fill="#262626"/>
<path fill-rule="evenodd" clip-rule="evenodd" d="M1.33398 3.0026H4.11176V4.11372H1.33398V3.0026Z" fill="#262626"/>
<path fill-rule="evenodd" clip-rule="evenodd" d="M13.0007 7.44705H14.6673V8.55816H13.0007V7.44705Z" fill="#262626"/>
<path fill-rule="evenodd" clip-rule="evenodd" d="M1.33398 7.44705H8.55621V8.55816H1.33398V7.44705Z" fill="#262626"/>
<path fill-rule="evenodd" clip-rule="evenodd" d="M8.55621 11.8915H14.6673V13.0026H8.55621V11.8915Z" fill="#262626"/>
<path fill-rule="evenodd" clip-rule="evenodd" d="M1.33398 11.8915H4.11176V13.0026H1.33398V11.8915Z" fill="#262626"/>
<path fill-rule="evenodd" clip-rule="evenodd" d="M5.22287 2.44705C4.60922 2.44705 4.11176 2.94451 4.11176 3.55816C4.11176 4.17181 4.60922 4.66927 5.22287 4.66927C5.83652 4.66927 6.33398 4.17181 6.33398 3.55816C6.33398 2.94451 5.83652 2.44705 5.22287 2.44705ZM3.00065 3.55816C3.00065 2.33086 3.99557 1.33594 5.22287 1.33594C6.45017 1.33594 7.4451 2.33086 7.4451 3.55816C7.4451 4.78546 6.45017 5.78038 5.22287 5.78038C3.99557 5.78038 3.00065 4.78546 3.00065 3.55816Z" fill="#262626"/>
<path fill-rule="evenodd" clip-rule="evenodd" d="M9.66732 6.89149C9.05367 6.89149 8.55621 7.38895 8.55621 8.0026C8.55621 8.61625 9.05367 9.11372 9.66732 9.11372C10.281 9.11372 10.7784 8.61625 10.7784 8.0026C10.7784 7.38895 10.281 6.89149 9.66732 6.89149ZM7.4451 8.0026C7.4451 6.7753 8.44002 5.78038 9.66732 5.78038C10.8946 5.78038 11.8895 6.7753 11.8895 8.0026C11.8895 9.2299 10.8946 10.2248 9.66732 10.2248C8.44002 10.2248 7.4451 9.2299 7.4451 8.0026Z" fill="#262626"/>
<path fill-rule="evenodd" clip-rule="evenodd" d="M5.22287 11.3359C4.60922 11.3359 4.11176 11.8334 4.11176 12.447C4.11176 13.0607 4.60922 13.5582 5.22287 13.5582C5.83652 13.5582 6.33398 13.0607 6.33398 12.447C6.33398 11.8334 5.83652 11.3359 5.22287 11.3359ZM3.00065 12.447C3.00065 11.2197 3.99557 10.2248 5.22287 10.2248C6.45017 10.2248 7.4451 11.2197 7.4451 12.447C7.4451 13.6743 6.45017 14.6693 5.22287 14.6693C3.99557 14.6693 3.00065 13.6743 3.00065 12.447Z" fill="#262626"/>
</svg>
