<svg width="24" height="24" viewBox="0 0 24 24" fill="none" xmlns="http://www.w3.org/2000/svg">
<mask id="path-1-outside-1_4991_169250" maskUnits="userSpaceOnUse" x="3.79688" y="3" width="17" height="18" fill="black">
<rect fill="white" x="3.79688" y="3" width="17" height="18"/>
<path fill-rule="evenodd" clip-rule="evenodd" d="M12.6512 4C12.1346 4 11.7159 4.41877 11.7159 4.93535V11.111H10.7804V6.71307C10.7804 6.19649 10.3616 5.77772 9.84502 5.77772C9.32844 5.77772 8.90966 6.19649 8.90966 6.71307V11.111V13.8172L6.70715 12.2708C6.19809 11.9133 5.49368 11.9989 5.08632 12.4676C4.66342 12.9543 4.70909 13.6812 5.18955 14.1105L9.88602 18.307C10.0694 18.4709 10.2749 18.5821 10.4881 18.6458C11.3825 19.4855 12.586 19.9999 13.9097 19.9999H14.1985C16.96 19.9999 19.1985 17.7613 19.1985 14.9999V12.8071C19.1986 12.804 19.1986 12.8009 19.1986 12.7978V8.49074C19.1986 7.97416 18.7798 7.55539 18.2632 7.55539C17.7466 7.55539 17.3279 7.97416 17.3279 8.49074V11.111H16.3926V5.82435C16.3926 5.30777 15.9738 4.889 15.4572 4.889C14.9406 4.889 14.5219 5.30777 14.5219 5.82435V11.111H13.5866V4.93535C13.5866 4.41877 13.1678 4 12.6512 4Z"/>
</mask>
<path d="M11.7159 11.111V12.111H12.7159V11.111H11.7159ZM10.7804 11.111H9.78037V12.111H10.7804V11.111ZM8.90966 13.8172L8.33503 14.6356L9.90966 15.7413V13.8172H8.90966ZM6.70715 12.2708L6.13251 13.0892H6.13251L6.70715 12.2708ZM5.08632 12.4676L4.33152 11.8117L4.33152 11.8117L5.08632 12.4676ZM5.18955 14.1105L5.85585 13.3648H5.85585L5.18955 14.1105ZM9.88602 18.307L10.5523 17.5614L10.5523 17.5614L9.88602 18.307ZM10.4881 18.6458L11.1725 17.9167L11.0004 17.7552L10.7742 17.6876L10.4881 18.6458ZM19.1985 12.8071L18.1985 12.7975V12.8071H19.1985ZM17.3279 11.111V12.111H18.3279V11.111H17.3279ZM16.3926 11.111H15.3926V12.111H16.3926V11.111ZM14.5219 11.111V12.111H15.5219V11.111H14.5219ZM13.5866 11.111H12.5866V12.111H13.5866V11.111ZM12.7159 4.93535C12.7159 4.97106 12.6869 5 12.6512 5V3C11.5824 3 10.7159 3.86649 10.7159 4.93535H12.7159ZM12.7159 11.111V4.93535H10.7159V11.111H12.7159ZM10.7804 12.111H11.7159V10.111H10.7804V12.111ZM9.78037 6.71307V11.111H11.7804V6.71307H9.78037ZM9.84502 6.77772C9.80931 6.77772 9.78037 6.74878 9.78037 6.71307H11.7804C11.7804 5.64421 10.9139 4.77772 9.84502 4.77772V6.77772ZM9.90966 6.71307C9.90966 6.74878 9.88072 6.77772 9.84502 6.77772V4.77772C8.77615 4.77772 7.90966 5.64421 7.90966 6.71307H9.90966ZM9.90966 11.111V6.71307H7.90966V11.111H9.90966ZM9.90966 13.8172V11.111H7.90966V13.8172H9.90966ZM6.13251 13.0892L8.33503 14.6356L9.4843 12.9988L7.28179 11.4524L6.13251 13.0892ZM5.84113 13.1236C5.91155 13.0426 6.04171 13.0254 6.13251 13.0892L7.28179 11.4524C6.35446 10.8012 5.07582 10.9552 4.33152 11.8117L5.84113 13.1236ZM5.85585 13.3648C5.78364 13.3003 5.77658 13.1979 5.84113 13.1236L4.33152 11.8117C3.55025 12.7107 3.63454 14.0621 4.52325 14.8562L5.85585 13.3648ZM10.5523 17.5614L5.85585 13.3648L4.52325 14.8562L9.21972 19.0527L10.5523 17.5614ZM10.7742 17.6876C10.7001 17.6655 10.6248 17.6261 10.5523 17.5614L9.21972 19.0527C9.51402 19.3157 9.84968 19.4988 10.202 19.604L10.7742 17.6876ZM13.9097 18.9999C12.8503 18.9999 11.8889 18.5893 11.1725 17.9167L9.80361 19.3748C10.8761 20.3817 12.3218 20.9999 13.9097 20.9999V18.9999ZM14.1985 18.9999H13.9097V20.9999H14.1985V18.9999ZM18.1985 14.9999C18.1985 17.209 16.4077 18.9999 14.1985 18.9999V20.9999C17.5122 20.9999 20.1985 18.3136 20.1985 14.9999H18.1985ZM18.1985 12.8071V14.9999H20.1985V12.8071H18.1985ZM18.1986 12.7978L18.1986 12.7975L20.1985 12.8166C20.1985 12.8105 20.1986 12.8042 20.1986 12.7978H18.1986ZM18.1986 8.49074V12.7978H20.1986V8.49074H18.1986ZM18.2632 8.55539C18.2275 8.55539 18.1986 8.52645 18.1986 8.49074H20.1986C20.1986 7.42187 19.3321 6.55539 18.2632 6.55539V8.55539ZM18.3279 8.49074C18.3279 8.52645 18.2989 8.55539 18.2632 8.55539V6.55539C17.1944 6.55539 16.3279 7.42187 16.3279 8.49074H18.3279ZM18.3279 11.111V8.49074H16.3279V11.111H18.3279ZM16.3926 12.111H17.3279V10.111H16.3926V12.111ZM15.3926 5.82435V11.111H17.3926V5.82435H15.3926ZM15.4572 5.889C15.4215 5.889 15.3926 5.86005 15.3926 5.82435H17.3926C17.3926 4.75548 16.5261 3.889 15.4572 3.889V5.889ZM15.5219 5.82435C15.5219 5.86005 15.4929 5.889 15.4572 5.889V3.889C14.3883 3.889 13.5219 4.75548 13.5219 5.82435H15.5219ZM15.5219 11.111V5.82435H13.5219V11.111H15.5219ZM13.5866 12.111H14.5219V10.111H13.5866V12.111ZM12.5866 4.93535V11.111H14.5866V4.93535H12.5866ZM12.6512 5C12.6155 5 12.5866 4.97106 12.5866 4.93535H14.5866C14.5866 3.86649 13.7201 3 12.6512 3V5Z" fill="#FAFAFA" mask="url(#path-1-outside-1_4991_169250)"/>
</svg>
