<svg width="24" height="24" viewBox="0 0 24 24" fill="none" xmlns="http://www.w3.org/2000/svg">
    <path d="M22.1848 11.8363L12.5309 2.18943C12.4613 2.11979 12.3788 2.06453 12.2879 2.02683C12.197 1.98913 12.0996 1.96973 12.0012 1.96973C11.9028 1.96973 11.8053 1.98913 11.7144 2.02683C11.6236 2.06453 11.541 2.11979 11.4715 2.18943L1.81758 11.8363C1.53633 12.1176 1.37695 12.4996 1.37695 12.898C1.37695 13.7254 2.04961 14.398 2.87695 14.398H3.89414V21.2816C3.89414 21.6965 4.2293 22.0316 4.64414 22.0316H10.5012V16.7816H13.1262V22.0316H19.3582C19.773 22.0316 20.1082 21.6965 20.1082 21.2816V14.398H21.1254C21.5238 14.398 21.9059 14.241 22.1871 13.9574C22.7707 13.3715 22.7707 12.4222 22.1848 11.8363Z" fill="#FFFFFF" />
</svg>
    