<svg width="20" height="20" viewBox="0 0 20 20" fill="none" xmlns="http://www.w3.org/2000/svg">
<path d="M16.9536 14.295H15.5805C15.4868 14.295 15.3989 14.336 15.3403 14.4082C15.2036 14.5742 15.0571 14.7344 14.9028 14.8867C14.2717 15.5184 13.5242 16.0219 12.7016 16.3692C11.8494 16.7291 10.9334 16.9138 10.0082 16.9121C9.0727 16.9121 8.16645 16.7285 7.31489 16.3692C6.49229 16.0219 5.74478 15.5184 5.11372 14.8867C4.48152 14.2572 3.97742 13.511 3.62934 12.6895C3.26801 11.8379 3.08637 10.9336 3.08637 9.99808C3.08637 9.06253 3.26997 8.15823 3.62934 7.30667C3.977 6.48441 4.477 5.74417 5.11372 5.1094C5.75043 4.47464 6.49067 3.97464 7.31489 3.62698C8.16645 3.26761 9.0727 3.08401 10.0082 3.08401C10.9438 3.08401 11.85 3.26565 12.7016 3.62698C13.5258 3.97464 14.2661 4.47464 14.9028 5.1094C15.0571 5.2637 15.2016 5.42386 15.3403 5.58792C15.3989 5.66019 15.4887 5.7012 15.5805 5.7012H16.9536C17.0766 5.7012 17.1528 5.56448 17.0844 5.46097C15.5864 3.13284 12.9653 1.59183 9.98676 1.59964C5.30707 1.61136 1.55512 5.41019 1.602 10.084C1.64887 14.6836 5.39497 18.3965 10.0082 18.3965C12.979 18.3965 15.5883 16.8575 17.0844 14.5352C17.1508 14.4317 17.0766 14.295 16.9536 14.295ZM18.6899 9.87503L15.9184 7.68753C15.8149 7.6055 15.6645 7.67972 15.6645 7.81058V9.29495H9.53168C9.44575 9.29495 9.37543 9.36526 9.37543 9.4512V10.545C9.37543 10.6309 9.44575 10.7012 9.53168 10.7012H15.6645V12.1856C15.6645 12.3164 15.8168 12.3907 15.9184 12.3086L18.6899 10.1211C18.7086 10.1065 18.7237 10.0878 18.7341 10.0665C18.7444 10.0452 18.7498 10.0218 18.7498 9.99808C18.7498 9.97436 18.7444 9.95096 18.7341 9.92964C18.7237 9.90832 18.7086 9.88965 18.6899 9.87503V9.87503Z" fill="white"/>
</svg>
