<svg width="18" height="18" viewBox="0 0 18 18" fill="none" xmlns="http://www.w3.org/2000/svg">
<path d="M9 11.5C10.98 11.5 12.6 9.8125 12.6 7.75V5.25C12.6 3.1875 10.98 1.5 9 1.5C7.02 1.5 5.4 3.1875 5.4 5.25V7.75C5.4 9.8125 7.02 11.5 9 11.5Z" fill="#BFBFBF"/>
<path d="M15 7.75C15 7.375 14.76 7.125 14.4 7.125C14.04 7.125 13.8 7.375 13.8 7.75C13.8 10.5 11.64 12.75 9 12.75C6.36 12.75 4.2 10.5 4.2 7.75C4.2 7.375 3.96 7.125 3.6 7.125C3.24 7.125 3 7.375 3 7.75C3 11 5.4 13.625 8.4 13.9375V15.25H6C5.64 15.25 5.4 15.5 5.4 15.875C5.4 16.25 5.64 16.5 6 16.5H12C12.36 16.5 12.6 16.25 12.6 15.875C12.6 15.5 12.36 15.25 12 15.25H9.6V13.9375C12.6 13.625 15 11 15 7.75Z" fill="#BFBFBF"/>
</svg>
