<svg width="40" height="40" viewBox="0 0 40 40" fill="none" xmlns="http://www.w3.org/2000/svg">
<rect width="40" height="40" rx="4" fill="#1890FF"/>
<path fill-rule="evenodd" clip-rule="evenodd" d="M22.2178 12.1499L22.2056 12.1465L9.10684 8.40327L18.7571 18.0753C19.158 17.8076 19.6395 17.6517 20.1574 17.6517C21.5544 17.6517 22.6868 18.7867 22.6868 20.1868C22.6868 21.5869 21.5544 22.7219 20.1574 22.7219C18.7604 22.7219 17.6279 21.5869 17.6279 20.1868C17.6279 19.6677 17.7836 19.185 18.0507 18.7831L8.40887 9.11954L12.0357 21.7996L12.0461 21.836L12.0537 21.873C12.8308 25.6474 16.1663 28.482 20.1575 28.482C21.065 28.482 21.9366 28.3359 22.7511 28.0666L23.337 27.8729L23.7729 28.3097L27.3717 31.9167L31.921 27.3571L28.2886 23.7164L27.8594 23.2863L28.0434 22.7073C28.2956 21.9136 28.4321 21.067 28.4321 20.1865C28.4321 16.3223 25.7962 13.0749 22.2301 12.1531L22.2178 12.1499ZM33.3337 27.3571L28.078 32.6246L27.3721 33.332L27.3717 33.3325L26.6654 32.6246L23.065 29.0161C22.1505 29.3184 21.173 29.482 20.1575 29.482C15.6807 29.482 11.9448 26.3031 11.0743 22.0746L6.99095 7.79862L6.66699 6.66602L7.79968 6.9897L22.4803 11.1849C26.4784 12.2183 29.4321 15.8567 29.4321 20.1865C29.4321 21.1709 29.2794 22.1196 28.9965 23.0101L33.3337 27.3571Z" fill="white"/>
</svg>
