<svg width="49" height="49" viewBox="0 0 49 49" fill="none" xmlns="http://www.w3.org/2000/svg">
    <rect x="0.667969" y="0.279297" width="48" height="48" rx="24" fill="#366AE2" />
    <path d="M27.2796 27.9112L24.8484 30.307C23.5798 29.5435 22.4013 28.6396 21.335 27.6123C20.3089 26.5458 19.4048 25.3685 18.6392 24.102L21.035 21.6708C21.1804 21.5235 21.2787 21.3363 21.3173 21.133C21.3559 20.9296 21.333 20.7194 21.2516 20.5291L18.7517 14.7063C18.6534 14.4776 18.4764 14.2917 18.2529 14.1822C18.0293 14.0727 17.7739 14.0469 17.533 14.1095L12.9497 15.3209C12.7205 15.3799 12.5183 15.5153 12.3763 15.7046C12.2343 15.8939 12.161 16.126 12.1685 16.3625C12.4599 21.6893 14.6752 26.7291 18.4027 30.5456C22.2204 34.2741 27.2624 36.4892 32.591 36.7788C32.8274 36.7863 33.0593 36.7132 33.2486 36.5714C33.438 36.4296 33.5734 36.2276 33.6326 35.9986L34.843 31.4153C34.907 31.1738 34.8821 30.9173 34.7727 30.6926C34.6633 30.4679 34.4768 30.29 34.2472 30.1914L28.4244 27.6915C28.2334 27.6098 28.0224 27.5871 27.8184 27.6262C27.6144 27.6654 27.4268 27.7646 27.2796 27.9112Z" fill="white" />
    <path d="M37.168 22.1957H35.0847C35.0822 19.9864 34.2034 17.8683 32.6412 16.3061C31.079 14.7438 28.9608 13.8651 26.7515 13.8626V11.7793C29.5132 11.7823 32.1609 12.8807 34.1137 14.8336C36.0665 16.7864 37.1649 19.4341 37.168 22.1957Z" fill="white" />
    <path d="M33.0014 22.1957H30.9181C30.9181 21.0907 30.4791 20.0309 29.6977 19.2495C28.9163 18.4681 27.8566 18.0292 26.7515 18.0292V15.9459C28.4086 15.9475 29.9973 16.6065 31.169 17.7782C32.3407 18.95 32.9997 20.5387 33.0014 22.1957Z" fill="white" />
</svg>
    