<svg width="24" height="24" viewBox="0 0 24 24" fill="none" xmlns="http://www.w3.org/2000/svg">
    <path d="M3.1875 12.937H4.67813C4.78125 12.937 4.86563 12.8526 4.86563 12.7495V6.76592H17.2547V8.46749C17.2547 8.51202 17.2688 8.55421 17.2969 8.58936C17.3127 8.60961 17.3323 8.62652 17.3547 8.63914C17.377 8.65176 17.4017 8.65982 17.4272 8.66287C17.4526 8.66592 17.4785 8.6639 17.5032 8.65691C17.5279 8.64993 17.551 8.63812 17.5711 8.62217L20.9297 5.98546C21.0305 5.86827 21.0141 5.74405 20.9297 5.67608L17.5711 3.04171C17.5365 3.01406 17.4935 2.99916 17.4492 2.99952C17.3414 2.99952 17.2523 3.08858 17.2523 3.19639V4.89796H4.68047C3.75469 4.89796 3 5.65264 3 6.58077V12.7495C3 12.8526 3.08437 12.937 3.1875 12.937ZM20.8125 11.062H19.3219C19.2188 11.062 19.1344 11.1464 19.1344 11.2495V17.2331H6.74531V15.5315C6.74531 15.487 6.73125 15.4448 6.70312 15.4097C6.68734 15.3894 6.66769 15.3725 6.64534 15.3599C6.62298 15.3473 6.59834 15.3392 6.57285 15.3362C6.54736 15.3331 6.52151 15.3351 6.49681 15.3421C6.4721 15.3491 6.44903 15.3609 6.42891 15.3769L3.07031 18.0136C2.96953 18.1308 2.98594 18.255 3.07031 18.323L6.42891 20.9573C6.46406 20.9855 6.50625 20.9995 6.55078 20.9995C6.65859 20.9995 6.74766 20.9105 6.74766 20.8026V19.1011H19.3242C20.25 19.1011 21.0047 18.3464 21.0047 17.4183V11.2495C21 11.1464 20.9156 11.062 20.8125 11.062Z" fill="#366AE2" />
</svg>