<svg width="20" height="20" viewBox="0 0 20 20" fill="none" xmlns="http://www.w3.org/2000/svg">
<path fill-rule="evenodd" clip-rule="evenodd" d="M10.0014 8.61103C9.20278 8.61103 8.55537 9.23286 8.55537 9.99994C8.55537 10.767 9.20278 11.3889 10.0014 11.3889C10.8 11.3889 11.4474 10.767 11.4474 9.99994C11.4474 9.23286 10.8 8.61103 10.0014 8.61103ZM7.10938 9.99994C7.10938 8.46586 8.4042 7.22217 10.0014 7.22217C11.5985 7.22217 12.8934 8.46586 12.8934 9.99994C12.8934 11.534 11.5985 12.7777 10.0014 12.7777C8.4042 12.7777 7.10938 11.534 7.10938 9.99994Z" fill="#FFFFFF"/>
<path fill-rule="evenodd" clip-rule="evenodd" d="M7.83789 2.27479C7.88313 1.92728 8.19069 1.6665 8.5553 1.6665H11.4473C11.8119 1.6665 12.1195 1.92728 12.1647 2.27479L12.4149 4.19644C12.9926 4.41956 13.534 4.72131 14.0223 5.0924L15.8845 4.33778C16.2205 4.20165 16.6094 4.32709 16.7917 4.63039L18.2377 7.03594C18.42 7.33921 18.3387 7.72541 18.048 7.93681L16.44 9.10625C16.4848 9.4015 16.5076 9.69967 16.5083 9.99842L15.7853 9.99984L16.5083 10.0013C16.5076 10.3 16.4848 10.5982 16.44 10.8934L18.048 12.0628C18.3387 12.2743 18.42 12.6604 18.2377 12.9638L16.7917 15.3693C16.6094 15.6726 16.2205 15.798 15.8845 15.6619L14.0223 14.9073C13.534 15.2783 12.9926 15.5801 12.4149 15.8033L12.1647 17.7249C12.1195 18.0724 11.8119 18.3332 11.4473 18.3332H8.5553C8.19069 18.3332 7.88313 18.0724 7.83789 17.7249L7.58773 15.8033C7.00999 15.5801 6.46862 15.2783 5.98027 14.9073L4.11806 15.6619C3.78211 15.798 3.3932 15.6726 3.21088 15.3693L1.76489 12.9638C1.58259 12.6604 1.66391 12.2743 1.95457 12.0628L3.56202 10.8938C3.47179 10.301 3.47179 9.69867 3.56202 9.10584L1.95457 7.93681C1.66391 7.72541 1.58259 7.33921 1.76489 7.03594L3.21088 4.63039C3.3932 4.32709 3.78211 4.20165 4.11806 4.33778L5.98027 5.0924C6.46862 4.72131 7.00999 4.41956 7.58773 4.19644L7.83789 2.27479ZM15.0623 9.99984C15.0615 9.64992 15.0215 9.30117 14.9432 8.9595C14.8826 8.69475 14.9879 8.42025 15.2129 8.25661L16.6664 7.19955L15.8585 5.85574L14.1742 6.53828C13.9137 6.64385 13.613 6.59386 13.4046 6.41034C12.8663 5.9363 12.2274 5.58002 11.5319 5.36605C11.2638 5.28357 11.0699 5.05915 11.035 4.79086L10.809 3.0554H9.19355L8.96763 4.79086C8.93272 5.05915 8.7388 5.28357 8.47072 5.36605C7.77523 5.58002 7.13631 5.9363 6.59798 6.41034C6.38956 6.59386 6.08887 6.64385 5.82837 6.53828L4.14402 5.85574L3.33624 7.19955L4.78968 8.25661C5.01512 8.42059 5.12035 8.69567 5.05903 8.96084C4.90078 9.64517 4.90078 10.3545 5.05903 11.0388C5.12035 11.304 5.01512 11.5791 4.78968 11.7431L3.33624 12.8001L4.14402 14.1439L5.82836 13.4614C6.08887 13.3558 6.38956 13.4058 6.59798 13.5893C7.13631 14.0633 7.77523 14.4197 8.47072 14.6337C8.7388 14.7161 8.93272 14.9405 8.96763 15.2088L9.19355 16.9443H10.809L11.035 15.2088C11.0699 14.9405 11.2638 14.7161 11.5319 14.6337C12.2274 14.4197 12.8663 14.0633 13.4046 13.5893C13.613 13.4058 13.9137 13.3558 14.1742 13.4614L15.8585 14.1439L16.6664 12.8001L15.2129 11.7431C14.9879 11.5794 14.8826 11.3049 14.9432 11.0402C15.0215 10.6985 15.0615 10.3498 15.0623 9.99984Z" fill="#FFFFFF"/>
</svg>
