<svg width="20" height="20" viewBox="0 0 20 20" fill="none" xmlns="http://www.w3.org/2000/svg">
<path fill-rule="evenodd" clip-rule="evenodd" d="M3.33301 16.2493C3.33301 13.5644 5.42215 11.3882 7.99967 11.3882H11.9997C14.5772 11.3882 16.6663 13.5644 16.6663 16.2493V17.4507L16.2029 17.6052L15.9997 16.9438C16.2029 17.6052 16.2029 17.6052 16.2029 17.6052L16.2011 17.6058L16.1986 17.6066L16.1913 17.609L16.1675 17.6165C16.1476 17.6228 16.1196 17.6314 16.0835 17.642C16.0113 17.6632 15.9069 17.6925 15.7708 17.727C15.4985 17.7961 15.0992 17.8865 14.5769 17.9762C13.5323 18.1557 11.996 18.3327 9.99967 18.3327C8.00337 18.3327 6.46707 18.1557 5.42242 17.9762C4.90015 17.8865 4.50089 17.7961 4.22857 17.727C4.09242 17.6925 3.98801 17.6632 3.91583 17.642C3.87974 17.6314 3.85171 17.6228 3.8318 17.6165L3.80803 17.609L3.80073 17.6066L3.79823 17.6058L3.79726 17.6055C3.79726 17.6055 3.79649 17.6052 3.99967 16.9438L3.79649 17.6052L3.33301 17.4507V16.2493ZM4.66634 16.4078C4.90248 16.4647 5.22762 16.5351 5.63942 16.6058C6.61561 16.7736 8.07931 16.9438 9.99967 16.9438C11.92 16.9438 13.3837 16.7736 14.3599 16.6058C14.7717 16.5351 15.0969 16.4647 15.333 16.4078V16.2493C15.333 14.3315 13.8408 12.7771 11.9997 12.7771H7.99967C6.15853 12.7771 4.66634 14.3315 4.66634 16.2493V16.4078Z" fill="white"/>
<path fill-rule="evenodd" clip-rule="evenodd" d="M9.99967 3.0549C8.5272 3.0549 7.33301 4.29885 7.33301 5.83268C7.33301 6.61864 7.64532 7.51247 8.16753 8.20672C8.69174 8.90364 9.35036 9.3049 9.99967 9.3049C10.649 9.3049 11.3076 8.90364 11.8318 8.20672C12.354 7.51247 12.6663 6.61864 12.6663 5.83268C12.6663 4.29885 11.4722 3.0549 9.99967 3.0549ZM5.99967 5.83268C5.99967 3.53179 7.79082 1.66602 9.99967 1.66602C12.2085 1.66602 13.9997 3.53179 13.9997 5.83268C13.9997 6.96409 13.5657 8.15359 12.8814 9.06333C12.1991 9.9704 11.191 10.6938 9.99967 10.6938C8.80833 10.6938 7.80028 9.9704 7.11799 9.06333C6.43369 8.15359 5.99967 6.96409 5.99967 5.83268Z" fill="white"/>
</svg>
