<svg width="400" height="65" viewBox="0 0 400 65" fill="none" xmlns="http://www.w3.org/2000/svg">
<path d="M61.1201 47.6196L54.2153 35.9766L39.9961 37.8139L42.7211 42.4271C42.967 42.8665 43.1309 43.3858 43.1309 43.925C43.1309 44.4841 42.9875 44.9834 42.7211 45.4427L61.3045 55.9075C62.0011 54.7292 62.3904 53.3712 62.3904 51.9133C62.4109 50.3356 61.9396 48.8578 61.1201 47.6196Z" fill="#BCE5FF"/>
<path d="M33.9486 27.6081L39.9928 37.8132L54.2121 35.9759L38.5586 9.53446H38.5381C37.2063 6.87833 34.4199 5.06099 31.2031 5.04102V25.9904C32.3915 26.0104 33.4364 26.6694 33.9486 27.6081Z" fill="#55B2FE"/>
<path d="M28.4367 27.6076C28.9694 26.649 30.0143 26.01 31.2027 26.01V5.06055C31.1822 5.06055 31.1822 5.06055 31.1617 5.06055C28.3342 5.06055 25.8551 6.43854 24.3799 8.55545L17.0039 20.9973L25.7731 32.1011L28.4367 27.6076Z" fill="#72BFFF"/>
<path d="M19.2595 43.9246C19.2595 43.3854 19.4029 42.8661 19.6693 42.4268L25.7954 32.1018L17.0262 20.998L0.86053 48.1983L0.90151 48.2583C0.327823 49.3567 0 50.5949 0 51.9129C0 53.3708 0.389288 54.7288 1.08591 55.9071L19.6693 45.4424C19.4234 44.983 19.2595 44.4638 19.2595 43.9246Z" fill="#96D0FF"/>
<path d="M22.4948 46.9792C22.4539 46.9792 22.4334 46.9792 22.4129 46.9792C21.245 46.9792 20.2411 46.3601 19.7084 45.4414L1.125 55.9061C2.53873 58.2827 5.1613 59.9003 8.17316 59.9203H22.3514L27.8424 46.9792H22.4948Z" fill="#BCE5FF"/>
<path d="M42.7194 45.4414C42.1867 46.3601 41.1622 46.9792 39.9943 46.9792C39.9739 46.9792 39.9329 46.9792 39.9124 46.9792H27.8035L22.3125 59.9203H54.1726C57.2254 59.9203 59.8685 58.3026 61.3027 55.9061L42.7194 45.4414Z" fill="white"/>
<path d="M96.3199 21.3766L99.3318 11.8105H103.266L98.5122 25.4506H94.2096L91.0953 16.2241L88.0219 25.4506H83.7603L79.0273 11.8105H83.0431L86.0345 21.3366L89.1693 11.8105H93.1441L96.3199 21.3766Z" fill="white"/>
<path d="M109.33 7.35684C109.33 8.67492 108.286 9.69343 106.913 9.69343C105.561 9.69343 104.516 8.67492 104.516 7.35684C104.516 6.03877 105.561 5.00028 106.913 5.00028C108.265 4.98031 109.33 6.0188 109.33 7.35684ZM108.818 25.4504H105.048V11.8103H108.818V25.4504Z" fill="white"/>
<path d="M125.434 16.7623V25.4497H121.664V17.9406C121.664 15.9635 120.66 14.8851 118.939 14.8851C117.32 14.8851 115.989 15.9036 115.989 17.9606V25.4297H112.219V11.7896H115.886V13.3873C116.89 11.9294 118.406 11.4102 120.005 11.4102C123.16 11.4501 125.434 13.607 125.434 16.7623Z" fill="white"/>
<path d="M132.955 7.35684C132.955 8.67492 131.911 9.69343 130.538 9.69343C129.186 9.69343 128.141 8.67492 128.141 7.35684C128.141 6.03877 129.186 5.00028 130.538 5.00028C131.911 4.98031 132.955 6.0188 132.955 7.35684ZM132.464 25.4504H128.694V11.8103H132.464V25.4504Z" fill="white"/>
<path d="M90.7657 43.7039H85.7049V48.6966C85.7049 50.3941 86.6269 51.0132 87.7948 51.0132C88.6963 51.0132 89.6593 50.5738 90.4174 50.1345L91.8106 53.0103C90.5813 53.8291 89.1675 54.4482 87.1801 54.4482C83.7175 54.4482 81.935 52.531 81.935 48.9961V43.7238H79.2305V40.4486H81.935V36.3945H85.7049V40.4486H90.7657V43.7039Z" fill="white"/>
<path d="M106.34 47.2379C106.34 47.6573 106.319 48.1765 106.258 48.4761H96.3411C96.7509 50.4532 98.1646 51.312 99.9472 51.312C101.156 51.312 102.467 50.8327 103.492 49.9939L105.705 52.3504C104.106 53.7684 102.098 54.4274 99.7423 54.4274C95.4601 54.4274 92.4688 51.5915 92.4688 47.2978C92.4688 43.0041 95.3577 40.0684 99.5374 40.0684C103.574 40.0684 106.34 42.9841 106.34 47.2379ZM96.3616 45.9797H102.549C102.201 44.2423 101.115 43.2437 99.4964 43.2437C97.7344 43.2437 96.7099 44.2822 96.3616 45.9797Z" fill="white"/>
<path d="M121.028 42.6445L118.303 44.8612C117.442 43.9825 116.541 43.5032 115.312 43.5032C113.365 43.5032 111.808 45.001 111.808 47.2577C111.808 49.5344 113.345 51.0123 115.312 51.0123C116.52 51.0123 117.565 50.4731 118.364 49.6343L121.048 51.871C119.737 53.5086 117.77 54.4273 115.434 54.4273C110.968 54.4273 107.977 51.3917 107.977 47.2577C107.977 43.1238 110.968 40.0882 115.434 40.0882C117.77 40.0682 119.758 41.0069 121.028 42.6445Z" fill="white"/>
<path d="M126.949 41.907C127.953 40.549 129.428 40.0697 130.964 40.0697C134.14 40.0697 136.415 42.2265 136.415 45.3819V54.0692H132.645V46.5602C132.645 44.5831 131.641 43.5047 129.92 43.5047C128.301 43.5047 126.969 44.5232 126.969 46.5802V54.0493H123.199V33.7988H126.969V41.907H126.949Z" fill="white"/>
<path d="M152.911 45.401V54.0883H149.141V46.5793C149.141 44.6022 148.137 43.5238 146.416 43.5238C144.797 43.5238 143.465 44.5423 143.465 46.5993V54.0684H139.695V40.4283H143.363V42.0259C144.367 40.5681 145.883 40.0488 147.481 40.0488C150.636 40.0688 152.911 42.2256 152.911 45.401Z" fill="white"/>
<path d="M170.426 47.2595C170.426 51.3735 167.21 54.429 162.846 54.429C158.502 54.429 155.285 51.3535 155.285 47.2595C155.285 43.1455 158.481 40.0899 162.846 40.0899C167.21 40.07 170.426 43.1455 170.426 47.2595ZM159.137 47.2595C159.137 49.4762 160.735 51.014 162.846 51.014C164.976 51.014 166.574 49.4563 166.574 47.2595C166.574 45.0427 164.976 43.505 162.846 43.505C160.735 43.505 159.137 45.0427 159.137 47.2595Z" fill="white"/>
<path d="M176.696 54.0888H172.926V33.8184H176.696V54.0888Z" fill="white"/>
<path d="M194.36 47.2595C194.36 51.3735 191.143 54.429 186.779 54.429C182.436 54.429 179.219 51.3535 179.219 47.2595C179.219 43.1455 182.415 40.0899 186.779 40.0899C191.123 40.07 194.36 43.1455 194.36 47.2595ZM183.05 47.2595C183.05 49.4762 184.648 51.014 186.759 51.014C188.889 51.014 190.488 49.4563 190.488 47.2595C190.488 45.0427 188.889 43.505 186.759 43.505C184.648 43.505 183.05 45.0427 183.05 47.2595Z" fill="white"/>
<path d="M206.757 41.9663V40.4485H210.445V52.9702C210.445 57.3438 207.515 59.9999 202.884 59.9999C200.671 59.9999 198.336 59.4407 196.758 58.3623L198.11 55.3667C199.504 56.2654 201.061 56.7647 202.741 56.7647C205.077 56.7647 206.736 55.5065 206.736 53.1499V52.1913C205.773 53.3297 204.359 54.0286 202.433 54.0286C199.032 54.0286 196 51.2527 196 47.0788C196 42.8849 199.032 40.109 202.433 40.109C204.38 40.069 205.814 40.8079 206.757 41.9663ZM199.852 47.0389C199.852 49.016 201.225 50.6136 203.376 50.6136C205.466 50.6136 206.88 49.0559 206.88 47.0389C206.88 45.0018 205.466 43.4441 203.376 43.4441C201.225 43.4641 199.852 45.0617 199.852 47.0389Z" fill="white"/>
<path d="M217.306 59.781H213.167L218.064 51.1935L212.02 40.4492H216.302L220.133 47.459L223.862 40.4492H228.001L217.306 59.781Z" fill="white"/>
</svg>
