<svg width="315" height="78" viewBox="0 0 315 78" fill="none" xmlns="http://www.w3.org/2000/svg">
    <path d="M84.4329 60.4022L74.8943 43.9006L55.251 46.5047L59.0155 53.043C59.3551 53.6657 59.5816 54.4016 59.5816 55.1659C59.5816 55.9584 59.3834 56.666 59.0155 57.317L84.6876 72.1486C85.65 70.4786 86.1878 68.5539 86.1878 66.4877C86.2161 64.2516 85.5651 62.1571 84.4329 60.4022Z" fill="#009EFF" />
    <path d="M46.9002 32.041L55.2501 46.5047L74.8934 43.9006L53.2688 6.42541H53.2404C51.4007 2.6609 47.5512 0.0851893 43.1074 0.0568848V29.7484C44.7491 29.7767 46.1926 30.7107 46.9002 32.041Z" fill="#00CFFF" />
    <path d="M39.2871 32.041C40.023 30.6824 41.4666 29.7767 43.1082 29.7767V0.0852051C43.0799 0.0852051 43.0799 0.0852051 43.0516 0.0852051C39.1456 0.0852051 35.7207 2.03822 33.6828 5.0385L23.4932 22.6722L35.6075 38.4095L39.2871 32.041Z" fill="#00E1FF" />
    <path d="M26.6063 55.1658C26.6063 54.4015 26.8044 53.6656 27.1724 53.0429L35.6355 38.4095L23.5211 22.6721L1.18879 61.2229L1.2454 61.3078C0.452876 62.8646 0 64.6195 0 66.4876C0 68.5538 0.537788 70.4785 1.50014 72.1485L27.1724 57.3169C26.8327 56.6659 26.6063 55.93 26.6063 55.1658Z" fill="#007FFF" />
    <path d="M31.0783 59.4963C31.0217 59.4963 30.9934 59.4963 30.9651 59.4963C29.3517 59.4963 27.9648 58.6189 27.2289 57.3169L1.55664 72.1485C3.50965 75.5167 7.13264 77.8094 11.2934 77.8377H30.8802L38.4658 59.4963H31.0783Z" fill="#005BDF" />
    <path d="M59.0146 57.3169C58.2787 58.6189 56.8634 59.4963 55.2501 59.4963C55.2218 59.4963 55.1652 59.4963 55.1369 59.4963H38.4089L30.8232 77.8377H74.8368C79.0542 77.8377 82.7055 75.545 84.6868 72.1485L59.0146 57.3169Z" fill="#0043C1" />
    <path d="M133.06 23.2102L137.221 9.65234H142.655L136.089 28.9844H130.145L125.842 15.9076L121.597 28.9844H115.709L109.171 9.65234H114.719L118.851 23.1536L123.182 9.65234H128.673L133.06 23.2102Z" fill="black" />
    <path d="M151.033 3.34034C151.033 5.20844 149.59 6.65197 147.693 6.65197C145.825 6.65197 144.382 5.20844 144.382 3.34034C144.382 1.47224 145.825 0.000401444 147.693 0.000401444C149.562 -0.0279031 151.033 1.44393 151.033 3.34034ZM150.326 28.9843H145.118V9.65226H150.326V28.9843Z" fill="black" />
    <path d="M173.281 16.6718V28.9843H168.073V18.3418C168.073 15.5396 166.686 14.0112 164.308 14.0112C162.072 14.0112 160.232 15.4547 160.232 18.3701V28.956H155.024V9.62397H160.091V11.8883C161.478 9.8221 163.572 9.08618 165.78 9.08618C170.139 9.14279 173.281 12.1997 173.281 16.6718Z" fill="black" />
    <path d="M183.668 3.34034C183.668 5.20844 182.225 6.65197 180.328 6.65197C178.46 6.65197 177.017 5.20844 177.017 3.34034C177.017 1.47224 178.46 0.000401444 180.328 0.000401444C182.225 -0.0279031 183.668 1.44393 183.668 3.34034ZM182.989 28.9843H177.781V9.65226H182.989V28.9843Z" fill="black" />
    <path d="M125.39 54.8546H118.398V61.9307C118.398 64.3366 119.672 65.214 121.285 65.214C122.531 65.214 123.861 64.5913 124.908 63.9686L126.833 68.0445C125.135 69.2049 123.182 70.0824 120.436 70.0824C115.653 70.0824 113.19 67.3651 113.19 62.3553V54.8829H109.454V50.2409H113.19V44.4951H118.398V50.2409H125.39V54.8546Z" fill="black" />
    <path d="M146.901 59.8645C146.901 60.4589 146.872 61.1948 146.787 61.6194H133.088C133.654 64.4215 135.607 65.6386 138.07 65.6386C139.739 65.6386 141.551 64.9593 142.966 63.7705L146.023 67.1105C143.815 69.1201 141.042 70.0542 137.786 70.0542C131.871 70.0542 127.738 66.0349 127.738 59.9494C127.738 53.8639 131.729 49.7031 137.503 49.7031C143.079 49.7031 146.901 53.8356 146.901 59.8645ZM133.116 58.0813H141.664C141.183 55.6188 139.683 54.2036 137.447 54.2036C135.013 54.2036 133.597 55.6754 133.116 58.0813Z" fill="black" />
    <path d="M167.195 53.3544L163.431 56.4962C162.242 55.2508 160.996 54.5715 159.298 54.5715C156.609 54.5715 154.458 56.6943 154.458 59.8927C154.458 63.1194 156.581 65.214 159.298 65.214C160.968 65.214 162.412 64.4497 163.515 63.261L167.223 66.4311C165.412 68.752 162.695 70.054 159.468 70.054C153.297 70.054 149.165 65.7517 149.165 59.8927C149.165 54.0337 153.297 49.7314 159.468 49.7314C162.695 49.7031 165.44 51.0334 167.195 53.3544Z" fill="black" />
    <path d="M175.375 52.3073C176.762 50.3826 178.8 49.7033 180.923 49.7033C185.31 49.7033 188.452 52.7602 188.452 57.2323V69.5447H183.244V58.9022C183.244 56.1001 181.857 54.5717 179.479 54.5717C177.243 54.5717 175.403 56.0152 175.403 58.9306V69.5164H170.195V40.8157H175.403V52.3073H175.375Z" fill="black" />
    <path d="M211.237 57.2606V69.5731H206.029V58.9306C206.029 56.1285 204.642 54.6 202.264 54.6C200.028 54.6 198.188 56.0436 198.188 58.9589V69.5448H192.98V50.2128H198.047V52.4772C199.434 50.411 201.528 49.675 203.736 49.675C208.095 49.7034 211.237 52.7602 211.237 57.2606Z" fill="black" />
    <path d="M235.437 59.8929C235.437 65.7237 230.994 70.0543 224.965 70.0543C218.964 70.0543 214.521 65.6954 214.521 59.8929C214.521 54.0622 218.936 49.7316 224.965 49.7316C230.994 49.7033 235.437 54.0622 235.437 59.8929ZM219.842 59.8929C219.842 63.0347 222.049 65.2142 224.965 65.2142C227.908 65.2142 230.116 63.0064 230.116 59.8929C230.116 56.7511 227.908 54.5717 224.965 54.5717C222.049 54.5717 219.842 56.7511 219.842 59.8929Z" fill="black" />
    <path d="M244.099 69.5731H238.891V40.844H244.099V69.5731Z" fill="black" />
    <path d="M268.497 59.8929C268.497 65.7237 264.053 70.0543 258.024 70.0543C252.024 70.0543 247.58 65.6954 247.58 59.8929C247.58 54.0622 251.996 49.7316 258.024 49.7316C264.025 49.7033 268.497 54.0622 268.497 59.8929ZM252.873 59.8929C252.873 63.0347 255.081 65.2142 257.996 65.2142C260.94 65.2142 263.148 63.0064 263.148 59.8929C263.148 56.7511 260.94 54.5717 257.996 54.5717C255.081 54.5717 252.873 56.7511 252.873 59.8929Z" fill="black" />
    <path d="M285.622 52.3921V50.2409H290.716V67.9879C290.716 74.1866 286.669 77.9511 280.272 77.9511C277.215 77.9511 273.988 77.1586 271.809 75.6301L273.677 71.3844C275.602 72.6581 277.753 73.3657 280.074 73.3657C283.301 73.3657 285.593 71.5826 285.593 68.2426V66.884C284.263 68.4974 282.31 69.488 279.649 69.488C274.951 69.488 270.762 65.5537 270.762 59.638C270.762 53.6941 274.951 49.7598 279.649 49.7598C282.338 49.7031 284.32 50.7504 285.622 52.3921ZM276.083 59.5814C276.083 62.3836 277.979 64.648 280.951 64.648C283.838 64.648 285.791 62.4402 285.791 59.5814C285.791 56.6944 283.838 54.4866 280.951 54.4866C277.979 54.5149 276.083 56.7793 276.083 59.5814Z" fill="black" />
    <path d="M300.198 77.6398H294.481L301.245 65.4688L292.896 50.241H298.811L304.104 60.1759L309.256 50.241H314.973L300.198 77.6398Z" fill="black" />
</svg>